<svg width="100" height="54" version="1.1" viewBox="0 0 100 54" xmlns="http://www.w3.org/2000/svg">
	<defs>
		<style>.cls-1, .cls-5 {
        fill: #fff;
      }

      .cls-1, .cls-4 {
        stroke: #242424;
        stroke-miterlimit: 10;
      }

      .cls-2 {
        fill: #242424;
      }

      .cls-3 {
        fill: #feeb29;
      }

      .cls-4 {
        fill: #242424;
      }</style>
	</defs>
	<g data-name="Layer 2">
		<g data-name="Layer 1">
			<rect y="34" width="100" height="20" fill="#242424" stroke-linecap="round" stroke-width="1.474"/>
			<rect class="cls-1" x=".5" y=".5" width="99" height="39" rx="4" ry="4" data-name="outer rect"/>
			<path class="cls-2" d="m26.437 19.125v-9.8183h2.5267v1.2853h0.36618a2.2858 2.2858 0 0 1 0.91546-0.964 3.4797 3.4797 0 0 1 2.014-0.46414 3.8924 3.8924 0 0 1 2.0506 0.53557 3.4309 3.4309 0 0 1 1.3549 1.4282 4.4193 4.4193 0 0 1 0.47606 2.1422v5.8553h-2.5633v-5.6411a2.3305 2.3305 0 0 0-0.54928-1.678 2.2196 2.2196 0 0 0-1.5746-0.57124 2.3274 2.3274 0 0 0-1.8309 0.74976 3.1441 3.1441 0 0 0-0.65915 2.1422v4.9984z"/>
			<path class="cls-2" d="m42.769 19.411a6.1488 6.1488 0 0 1-2.7098-0.607 4.5937 4.5937 0 0 1-1.9041-1.7136 4.9242 4.9242 0 0 1-0.69576-2.7134v-0.32133a4.9242 4.9242 0 0 1 0.69576-2.7134 4.5939 4.5939 0 0 1 1.9041-1.7137 6.0341 6.0341 0 0 1 2.7098-0.60695 6.1488 6.1488 0 0 1 2.7098 0.60695 4.5936 4.5936 0 0 1 1.9042 1.7137 4.9243 4.9243 0 0 1 0.69576 2.7134v0.32133a4.9243 4.9243 0 0 1-0.69576 2.7134 4.5939 4.5939 0 0 1-1.9042 1.7137 6.034 6.034 0 0 1-2.7098 0.60691zm0-2.2136a2.6867 2.6867 0 0 0 1.9408-0.74977 2.8559 2.8559 0 0 0 0.769-2.1422v-0.21417a2.8559 2.8559 0 0 0-0.769-2.1422 2.8868 2.8868 0 0 0-3.8816 0 2.8559 2.8559 0 0 0-0.769 2.1422v0.21421a2.8559 2.8559 0 0 0 0.769 2.1422 2.6868 2.6868 0 0 0 1.9408 0.74977z"/>
			<path class="cls-2" d="m49.397 19.125v-9.8183h2.5267v1.1068h0.36618a1.4986 1.4986 0 0 1 0.769-0.85688 2.5105 2.5105 0 0 1 1.2084-0.24992h1.2084v2.0708h-1.245a2.5106 2.5106 0 0 0-1.6112 0.60695 1.8872 1.8872 0 0 0-0.6225 1.5352v5.5697h-2.6z"/>
			<path class="cls-2" d="m59.027 19.125a2.24 2.24 0 0 1-1.6112-0.60695 2.1515 2.1515 0 0 1-0.62249-1.6066v-5.534h-2.5267v-2.0707h2.5267v-3.0348h2.5633v3.0348h2.7464v2.0708h-2.7464v5.1055c0 0.39274 0.18309 0.607 0.58588 0.607h1.9408v2.0708h-2.8563z"/>
			<path class="cls-2" d="m67.816 19.411a6.1488 6.1488 0 0 1-2.7098-0.607 4.5936 4.5936 0 0 1-1.9041-1.7136 4.9242 4.9242 0 0 1-0.69576-2.7134v-0.32133a4.9242 4.9242 0 0 1 0.69576-2.7134 4.5938 4.5938 0 0 1 1.9041-1.7137 6.0341 6.0341 0 0 1 2.7098-0.60695 6.1488 6.1488 0 0 1 2.7098 0.60695 4.5936 4.5936 0 0 1 1.9041 1.7137 4.9242 4.9242 0 0 1 0.69576 2.7134v0.32133a4.9242 4.9242 0 0 1-0.69576 2.7134 4.5939 4.5939 0 0 1-1.9041 1.7137 6.0341 6.0341 0 0 1-2.7098 0.60691zm0-2.2136a2.6867 2.6867 0 0 0 1.9408-0.74977 2.8559 2.8559 0 0 0 0.769-2.1422v-0.21417a2.8559 2.8559 0 0 0-0.769-2.1422 2.8868 2.8868 0 0 0-3.8816 0 2.8559 2.8559 0 0 0-0.769 2.1422v0.21421a2.8559 2.8559 0 0 0 0.769 2.1422 2.6867 2.6867 0 0 0 1.9408 0.74977z"/>
			<path class="cls-2" d="m74.444 19.125v-9.8183h2.5267v1.2853h0.36618a2.2858 2.2858 0 0 1 0.91546-0.964 3.4797 3.4797 0 0 1 2.014-0.46414 3.8924 3.8924 0 0 1 2.0506 0.53555 3.4309 3.4309 0 0 1 1.3549 1.4282 4.4193 4.4193 0 0 1 0.47606 2.1422v5.8553h-2.5633v-5.6411a2.3305 2.3305 0 0 0-0.54927-1.678 2.2196 2.2196 0 0 0-1.5746-0.57124 2.3274 2.3274 0 0 0-1.8309 0.74976 3.1441 3.1441 0 0 0-0.65915 2.1422v4.9984z"/>
			<path class="cls-3" d="m22.446 14.163a9.3545 9.3545 0 0 1-9.4476 9.2114 9.3545 9.3545 0 0 1-9.4476-9.2114 9.3545 9.3545 0 0 1 9.4476-9.2114 9.4855 9.4855 0 0 1 4.028 0.89257l-1.5746 1.9637a7.0882 7.0882 0 0 0-2.4534-0.42844 6.9215 6.9215 0 0 0-6.9575 6.3194v0.49984a6.9075 6.9075 0 0 0 6.9941 6.8193 6.9079 6.9079 0 0 0 6.9941-6.8193 9.4487 9.4487 0 0 0-0.14648-1.4638l1.8309-2.285a10.036 10.036 0 0 1 0.73242 3.7131z"/>
			<path class="cls-2" d="m20.505 8.593-1.5746 1.9994-5.6026 7.0335-4.5773-3.963 1.6478-1.7852 2.5633 2.2493 4.2477-5.3198 1.5014-1.8923a6.5968 6.5968 0 0 1 1.7944 1.678z"/>
			<path class="cls-2" d="m84.367 10.45v-0.92828h-0.40279v-0.17851h0.98868v0.17851h-0.4028v0.92828zm0.769 0v-1.1425h0.40279l0.21971 0.92828h0.03661l0.2197-0.92828h0.40279v1.1425h-0.2197v-0.92828h-0.03661l-0.2197 0.92828h-0.32958l-0.2197-0.92828h-0.03661v0.92828z"/>
			<path d="m91.275 22.871a0.51353 0.51353 0 0 1-0.68038 0l-0.45358-0.413a0.40982 0.40982 0 0 1 0-0.61954l1.9348-1.7618-1.9348-1.7618a0.40984 0.40984 0 0 1 0-0.61955l0.45158-0.41668a0.51353 0.51353 0 0 1 0.68038 0l2.7295 2.4855a0.41041 0.41041 0 0 1 2e-3 0.62137zm6.583-2.4891-2.7295 2.4855a0.51353 0.51353 0 0 1-0.68038 0l-0.45359-0.413a0.40983 0.40983 0 0 1 0-0.61954l1.9348-1.7618-1.9348-1.7618a0.40983 0.40983 0 0 1 0-0.61954l0.45359-0.413a0.51353 0.51353 0 0 1 0.68038 0l2.7296 2.4855a0.40781 0.40781 0 0 1-2e-5 0.61765z" fill="#242424"/>
			<path class="cls-2" d="m7.5156 29.109a1.1159 1.1159 0 0 0-0.82812-0.38562 0.58989 0.58989 0 0 0-0.63086 0.6408c0 0.38562 0.27051 0.55225 0.7832 0.80742a1.956 1.956 0 0 1 1.3506 1.8081 1.8933 1.8933 0 0 1-1.9804 2.0186 2.6298 2.6298 0 0 1-1.8096-0.70174l0.73828-1.054a1.483 1.483 0 0 0 1.0264 0.46561 0.5948 0.5948 0 0 0 0.62109-0.63223c0-0.40371-0.29688-0.60557-0.8457-0.86836a1.8312 1.8312 0 0 1-1.2695-1.791 1.876 1.876 0 0 1 1.9619-1.9662 2.2082 2.2082 0 0 1 1.6299 0.62366z"/>
			<path class="cls-2" d="m11.944 33.832v-2.5984h-1.4853v2.5984h-1.4317v-6.2147h1.4317v2.3613h1.4854v-2.3613h1.4306v6.2147z"/>
			<path class="cls-2" d="m16.695 33.998c-1.5127 0-2.4492-1.3168-2.4492-3.2916 0-1.9662 0.919-3.2564 2.4492-3.2564 1.5127 0 2.4482 1.2902 2.4482 3.2564 0 1.9748-0.93554 3.2916-2.4482 3.2916zm0-5.1873c-0.65723 0-0.97266 0.816-0.97266 1.8957s0.31543 1.9138 0.97266 1.9138c0.64844 0 0.97266-0.83408 0.97266-1.9138s-0.32422-1.8957-0.97266-1.8957z"/>
			<path class="cls-2" d="m22.05 31.568h-0.62109v2.2642h-1.4131v-6.2147h1.9805a1.8052 1.8052 0 0 1 1.9531 1.949 1.8454 1.8454 0 0 1-1.8994 2.0015zm-0.16211-2.765h-0.459v1.6234h0.459a0.73452 0.73452 0 0 0 0.71192-0.83409 0.68775 0.68775 0 0 0-0.71192-0.7893z"/>
			<path class="cls-2" d="m26.748 31.568h-0.62109v2.2642h-1.4131v-6.2147h1.9805a1.8052 1.8052 0 0 1 1.9531 1.949 1.8454 1.8454 0 0 1-1.8994 2.0015zm-0.16211-2.765h-0.459v1.6234h0.459a0.73452 0.73452 0 0 0 0.71192-0.83409 0.68775 0.68775 0 0 0-0.71189-0.7893z"/>
			<path class="cls-2" d="m29.412 33.832v-6.2147h1.4492v6.2147z"/>
			<path class="cls-2" d="m34.749 33.832-1.4766-3.7829h-0.02735l0.03614 3.7829h-1.2871v-6.2147h1.584l1.4678 3.8362h0.02734l-0.02734-3.8362h1.2422v6.2147z"/>
			<path class="cls-2" d="m39.718 33.972c-1.6025 0-2.5576-1.3159-2.5576-3.2468 0-1.9405 0.98145-3.2744 2.4668-3.2744a2.1472 2.1472 0 0 1 1.7734 0.75506l-0.78321 1.0264a1.0381 1.0381 0 0 0-0.88183-0.43894c-0.792-0.0086-1.1524 0.8874-1.1524 1.9319s0.333 1.9395 1.125 1.9395a0.85784 0.85784 0 0 0 0.50489-0.1314v-1.1587h-0.68457v-1.2207h1.9443v3.3097a2.8454 2.8454 0 0 1-1.7549 0.50845z"/>
			<path class="cls-2" d="m46.557 33.972c-1.6025 0-2.5576-1.3159-2.5576-3.2468 0-1.9405 0.98144-3.2744 2.4668-3.2744a2.1472 2.1472 0 0 1 1.7734 0.75506l-0.7832 1.0264a1.0381 1.0381 0 0 0-0.88184-0.43894c-0.792-0.0086-1.1523 0.8874-1.1523 1.9319s0.333 1.9395 1.125 1.9395a0.85781 0.85781 0 0 0 0.50488-0.1314v-1.1588h-0.68457v-1.2207h1.9443v3.3097a2.8455 2.8455 0 0 1-1.7549 0.50845z"/>
			<path class="cls-2" d="m51.327 33.998c-1.5576 0-2.1338-1.0883-2.1338-2.4661v-3.9152h1.4492v3.7924c0 0.70174 0.14453 1.2368 0.71191 1.2368 0.56641 0 0.71094-0.53511 0.71094-1.2368v-3.7924h1.4404v3.9152c0 1.3692-0.6211 2.4661-2.1787 2.4661z"/>
			<path class="cls-2" d="m57.249 33.832-0.26074-1.1321h-1.4316l-0.26074 1.1321h-1.4404l1.5488-6.2147h1.8096l1.5391 6.2147zm-0.9541-4.8626h-0.03613l-0.54 2.6422h1.0898z"/>
			<path class="cls-2" d="m61.974 33.832-0.85547-2.4756h-0.42383v2.4756h-1.3857v-6.2147h2.043a1.7233 1.7233 0 0 1 1.9541 1.87 1.5567 1.5567 0 0 1-0.90039 1.571l1.0898 2.7736zm-0.8291-5.0388h-0.4502v1.572h0.42383a0.72329 0.72329 0 0 0 0.76465-0.79885 0.68039 0.68039 0 0 0-0.73829-0.77315z"/>
			<path class="cls-2" d="m67.004 33.832-0.26074-1.1321h-1.4316l-0.26074 1.1321h-1.4404l1.5488-6.2147h1.8096l1.5391 6.2147zm-0.9541-4.8626h-0.03613l-0.54 2.6422h1.0898z"/>
			<path class="cls-2" d="m71.82 33.832-1.4766-3.7829h-0.02734l0.03613 3.7829h-1.2871v-6.2147h1.584l1.4678 3.8362h0.02729l-0.02734-3.8362h1.2422v6.2147z"/>
			<path class="cls-2" d="m76.5 28.811v5.0207h-1.4141v-5.0207h-1.1699v-1.194h3.7539v1.194z"/>
			<path class="cls-2" d="m78.227 33.832v-6.2147h3.0791v1.2378h-1.7021v1.2197h1.5664v1.1588h-1.5664v1.3435h1.8096v1.2549z"/>
			<path class="cls-2" d="m82.258 33.832v-6.2147h3.0791v1.2378h-1.7022v1.2197h1.5664v1.1588h-1.5664v1.3435h1.8096v1.2549z"/>
		</g>
	</g>
</svg>
